# xmcd
#
# Track frame offsets: 
#        150
#        15622
#        29157
#        43196
#        57659
#        74103
#        88468
#        104693
#        119890
#        135879
#        150321
#        164939
#        180367
#        197997
#        214577
#        230256
#        245350
#        260111
#        274602
#        290294
#        308359
#
# Disc length: 4518 seconds
#
# Revision: 2
# Processed by: cddbd v1.5.2PL0 Copyright (c) Steve Scherf et al.
# Submitted via: ExactAudioCopy v0.99pb5
#
DISCID=4411a415
DTITLE=Various Artist - Doppelt Gut - Folge 53 (1-2016) - CD 2
DYEAR=2015
DGENRE=Schlager
TTITLE0=Howard Carpendale - Es ist alles noch da
TTITLE1=Nicole - Wer wirft den ersten Stein 
TTITLE2=G.G. Anderson - Da bin ich zu Haus
TTITLE3=Andrea Jürgens - Das reicht für mehr als eine Nacht
TTITLE4=Uwe Busse - Nur für einen Moment 
TTITLE5=Mary Roos - Wartezeit 
TTITLE6=Birgit Langer and Andrea - Was wir bewegen 
TTITLE7=Alexander Rier - Die Waffen einer Frau
TTITLE8=Monika Martin - Das kleine Haus am Meer 
TTITLE9=Patrick Lindner - Schwerelos
TTITLE10=Sibylle - Tief wie das Meer
TTITLE11=Julian Frank - Das Leben fängt erst an 
TTITLE12=Glasherz - Ich will dich 1x 2x 3x (Discofox Mix) 
TTITLE13=Ines Adler - Unsere erste Nacht 
TTITLE14=Olaf Berger - Träumen lohnt sich heut Nacht
TTITLE15=Diana and Marco - Als gestern noch heute war  
TTITLE16=Stefan Peters - Ich leb hinterm Mond
TTITLE17=Stella - Verbotene Liebe
TTITLE18=Kleinstadt Rokker - Geile Zeit
TTITLE19=Jana Sammer - Jeder kleine Schritt
TTITLE20=D'r Frank - Zom Danze (Hitmix)
EXTD=
EXTT0=
EXTT1=
EXTT2=
EXTT3=
EXTT4=
EXTT5=
EXTT6=
EXTT7=
EXTT8=
EXTT9=
EXTT10=
EXTT11=
EXTT12=
EXTT13=
EXTT14=
EXTT15=
EXTT16=
EXTT17=
EXTT18=
EXTT19=
EXTT20=
PLAYORDER=
